<svg xmlns="http://www.w3.org/2000/svg" xmlns:xlink="http://www.w3.org/1999/xlink" width="500" zoomAndPan="magnify" viewBox="0 0 375 374.999991" height="500" preserveAspectRatio="xMidYMid meet" version="1.0"><defs><clipPath id="eda7a48383"><path d="M 189.398438 170.648438 L 374.988281 170.648438 L 374.988281 282.886719 L 189.398438 282.886719 Z M 189.398438 170.648438 " clip-rule="nonzero"/></clipPath><clipPath id="79eb440ec7"><path d="M 82.671875 267.226562 L 284.527344 267.226562 L 284.527344 308.433594 L 82.671875 308.433594 Z M 82.671875 267.226562 " clip-rule="nonzero"/></clipPath></defs><path fill="#000000" d="M 337.996094 98.832031 C 337.632812 98.5 337.269531 98.167969 336.902344 97.839844 C 312.542969 76.046875 278.910156 66.550781 246.683594 71.148438 C 239.511719 72.167969 232.429688 73.863281 225.558594 76.1875 C 229.742188 75.136719 233.980469 74.300781 238.242188 73.691406 C 272.21875 68.851562 307.675781 78.859375 333.351562 101.832031 C 333.738281 102.179688 334.125 102.527344 334.507812 102.882812 C 357.675781 124.222656 366.679688 155.558594 360.664062 184.785156 C 370.09375 154.851562 362.175781 121.105469 337.996094 98.832031 " fill-opacity="1" fill-rule="nonzero"/><path fill="#ff0000" d="M 343.992188 264.003906 C 342.394531 265.257812 340.765625 266.480469 339.105469 267.65625 C 314.636719 284.996094 284.550781 293.257812 254.675781 290.6875 C 215.796875 287.339844 184.410156 262.9375 151.09375 245.25 C 139.894531 239.304688 125.964844 236.164062 113.285156 236.324219 C 97.332031 236.519531 81.324219 242.527344 68.269531 252.257812 C 74.046875 250.84375 79.953125 250.050781 85.851562 249.984375 C 99.183594 249.824219 113.828125 252.964844 125.605469 258.910156 C 160.640625 276.597656 193.640625 300.996094 234.519531 304.34375 C 265.933594 306.917969 297.566406 298.65625 323.296875 281.316406 C 330.820312 276.246094 337.761719 270.425781 343.992188 264.003906 " fill-opacity="1" fill-rule="nonzero"/><g clip-path="url(#eda7a48383)"><path fill="#ff0000" d="M 374.8125 184.152344 C 374.558594 179.683594 374.019531 175.246094 373.210938 170.871094 C 368.394531 197.640625 354.054688 222.457031 333.585938 240.632812 C 311.160156 260.550781 282.164062 272.054688 252.183594 272.769531 C 230.398438 273.289062 209.117188 267.734375 189.429688 258.722656 C 209.152344 271.265625 231.230469 280.257812 254.675781 282.273438 C 284.550781 284.847656 314.636719 276.585938 339.105469 259.246094 C 339.210938 259.171875 339.320312 259.09375 339.421875 259.019531 C 361.984375 242.925781 375.3125 216.761719 374.980469 189.054688 C 374.964844 187.421875 374.90625 185.789062 374.8125 184.152344 " fill-opacity="1" fill-rule="nonzero"/></g><path fill="#000000" d="M 173.53125 191.070312 C 173.3125 205.375 177.050781 219.574219 185.703125 231.199219 C 193.386719 241.523438 204.59375 249.003906 217.171875 251.816406 C 226.542969 253.910156 236.347656 253.269531 245.3125 249.859375 C 235.320312 246.59375 225.855469 242.640625 217.863281 235.605469 C 208.160156 227.0625 201.421875 215.34375 199.488281 202.496094 C 198.886719 198.476562 198.855469 194.527344 198.949219 190.484375 C 198.949219 190.601562 198.945312 190.714844 198.945312 190.832031 C 198.945312 190.832031 198.945312 190.730469 198.949219 190.730469 C 200.570312 170.480469 212.136719 152.0625 230.101562 142.117188 C 233.898438 140.015625 238.144531 137.863281 242.402344 136.894531 C 242.308594 136.894531 242.214844 136.90625 242.121094 136.925781 C 247.683594 135.515625 253 134.386719 258.773438 134.179688 C 269.640625 133.792969 279.652344 136.570312 289.652344 140.410156 C 280.519531 123.769531 261.226562 116.457031 242.96875 117.183594 C 217.988281 118.175781 195.089844 134.910156 183.160156 156.386719 C 177.3125 166.914062 173.71875 178.980469 173.53125 191.070312 " fill-opacity="1" fill-rule="nonzero"/><g clip-path="url(#79eb440ec7)"><path fill="#ff0000" d="M 284.378906 299.109375 C 276.980469 300.257812 269.542969 301.019531 262.152344 301.375 C 238.5 302.515625 215.207031 298.871094 193.550781 290.964844 C 176.761719 284.835938 161.574219 275.726562 144.148438 270.949219 C 125.109375 265.726562 104.503906 265.675781 85.492188 273.09375 C 84.570312 273.453125 83.652344 273.832031 82.738281 274.21875 C 93.355469 273.695312 104.011719 275.003906 114.21875 277.804688 C 131.640625 282.582031 146.828125 291.6875 163.617188 297.816406 C 185.273438 305.722656 208.570312 309.371094 232.21875 308.230469 C 249.730469 307.382812 267.511719 304.289062 284.378906 299.109375 " fill-opacity="1" fill-rule="nonzero"/></g><path fill="#ff0000" d="M 189.429688 249.976562 C 179.027344 236.09375 165.832031 224.351562 150.597656 215.699219 C 116.667969 196.429688 76.980469 198.75 39.503906 194.445312 C 26.90625 193 13.652344 187.695312 3.292969 180.378906 C 2.175781 179.59375 1.085938 178.765625 0.0195312 177.910156 C 5.085938 185.613281 11.441406 192.390625 18.839844 197.617188 C 29.195312 204.929688 42.453125 210.234375 55.046875 211.679688 C 92.527344 215.984375 132.210938 213.664062 166.144531 232.933594 C 174.574219 237.722656 182.375 243.460938 189.429688 249.976562 " fill-opacity="1" fill-rule="nonzero"/><path fill="#000000" d="M 337.601562 109.863281 C 337.257812 109.546875 336.910156 109.234375 336.5625 108.921875 C 313.386719 88.1875 281.390625 79.15625 250.730469 83.527344 C 220.535156 87.832031 191.96875 104.640625 175.421875 130.546875 C 174.398438 132.148438 173.453125 133.792969 172.523438 135.449219 C 183.515625 124.441406 196.144531 115.398438 210.433594 109.566406 C 214.351562 107.882812 218.386719 106.421875 222.539062 105.210938 C 226.550781 104.042969 230.625 103.109375 234.746094 102.421875 C 236.875 102.066406 239.726562 101.90625 241.523438 101.511719 C 259.257812 99.96875 277.09375 102.6875 293.011719 110.875 C 310.835938 120.046875 325.058594 135.707031 331.960938 154.585938 C 333.566406 158.976562 334.789062 163.515625 335.59375 168.121094 C 335.757812 169.046875 336.839844 175.578125 336.59375 175.640625 C 336.59375 175.640625 336.566406 175.5 336.566406 175.488281 C 336.566406 178.421875 336.910156 181.34375 336.851562 184.289062 C 336.722656 190.941406 335.804688 197.566406 334.128906 204.003906 C 331.988281 212.21875 328.640625 220.097656 324.289062 227.382812 C 326.929688 221.953125 329.042969 216.269531 330.566406 210.421875 C 332.296875 203.773438 333.25 196.929688 333.382812 190.058594 C 333.445312 187.015625 333.085938 183.996094 333.085938 180.96875 C 333.085938 180.980469 333.113281 181.125 333.113281 181.125 C 333.367188 181.058594 332.25 174.316406 332.082031 173.355469 C 331.25 168.601562 329.984375 163.914062 328.328125 159.375 C 323.496094 146.160156 315.1875 134.472656 304.605469 125.363281 C 312.191406 132.925781 318.171875 142.074219 321.882812 152.21875 C 323.378906 156.308594 324.515625 160.535156 325.269531 164.824219 C 325.421875 165.6875 326.425781 171.769531 326.195312 171.824219 C 326.195312 171.824219 326.171875 171.695312 326.171875 171.683594 C 326.171875 174.414062 326.496094 177.136719 326.4375 179.882812 C 326.320312 186.074219 325.460938 192.246094 323.902344 198.238281 C 320.480469 211.386719 313.738281 223.601562 304.652344 233.679688 C 290.226562 249.675781 269.972656 260.285156 248.5 262.507812 C 235.75 263.824219 223.171875 263.015625 211.109375 260.078125 C 211.679688 260.25 212.253906 260.417969 212.84375 260.566406 C 225.328125 263.730469 238.457031 265.222656 251.347656 264.910156 C 280.359375 264.21875 308.421875 253.085938 330.121094 233.8125 C 336.527344 228.125 342.308594 221.765625 347.359375 214.886719 C 371.183594 182.460938 367.199219 137.125 337.601562 109.863281 " fill-opacity="1" fill-rule="nonzero"/></svg>