<svg xmlns="http://www.w3.org/2000/svg" xmlns:xlink="http://www.w3.org/1999/xlink" width="500" zoomAndPan="magnify" viewBox="0 0 375 374.999991" height="500" preserveAspectRatio="xMidYMid meet" version="1.0"><defs><g/><clipPath id="d52c0241f7"><path d="M 0 207.4375 L 367.488281 207.4375 L 367.488281 211.1875 L 0 211.1875 Z M 0 207.4375 " clip-rule="nonzero"/></clipPath><clipPath id="c1b59199f2"><path d="M 365.890625 211.046875 L -5.914062 211.046875 C -6.128906 211.046875 -6.332031 211.003906 -6.527344 210.914062 C -6.722656 210.824219 -6.894531 210.699219 -7.042969 210.535156 C -7.195312 210.371094 -7.308594 210.183594 -7.390625 209.96875 C -7.472656 209.757812 -7.511719 209.535156 -7.511719 209.304688 C -7.511719 209.070312 -7.472656 208.851562 -7.390625 208.636719 C -7.308594 208.421875 -7.195312 208.234375 -7.042969 208.070312 C -6.894531 207.90625 -6.722656 207.78125 -6.527344 207.691406 C -6.332031 207.605469 -6.128906 207.558594 -5.914062 207.558594 L 365.890625 207.558594 C 366.105469 207.558594 366.308594 207.605469 366.503906 207.691406 C 366.699219 207.78125 366.871094 207.90625 367.019531 208.070312 C 367.171875 208.234375 367.285156 208.421875 367.367188 208.636719 C 367.449219 208.851562 367.488281 209.070312 367.488281 209.304688 C 367.488281 209.535156 367.449219 209.757812 367.367188 209.96875 C 367.285156 210.183594 367.171875 210.371094 367.019531 210.535156 C 366.871094 210.699219 366.699219 210.824219 366.503906 210.914062 C 366.308594 211.003906 366.105469 211.046875 365.890625 211.046875 Z M 365.890625 211.046875 " clip-rule="nonzero"/></clipPath><linearGradient x1="8.893875" gradientTransform="matrix(0.844595, 0, 0, 0.922424, -7.511714, 207.559905)" y1="1.89" x2="443.999969" gradientUnits="userSpaceOnUse" y2="1.89" id="8154b55260"><stop stop-opacity="1" stop-color="rgb(98.271179%, 98.240662%, 98.246765%)" offset="0"/><stop stop-opacity="1" stop-color="rgb(97.940063%, 97.903442%, 97.911072%)" offset="0.00390625"/><stop stop-opacity="1" stop-color="rgb(97.610474%, 97.567749%, 97.576904%)" offset="0.0078125"/><stop stop-opacity="1" stop-color="rgb(97.279358%, 97.232056%, 97.241211%)" offset="0.0117188"/><stop stop-opacity="1" stop-color="rgb(96.949768%, 96.896362%, 96.907043%)" offset="0.015625"/><stop stop-opacity="1" stop-color="rgb(96.618652%, 96.559143%, 96.57135%)" offset="0.0195312"/><stop stop-opacity="1" stop-color="rgb(96.289062%, 96.22345%, 96.237183%)" offset="0.0234375"/><stop stop-opacity="1" stop-color="rgb(95.957947%, 95.887756%, 95.901489%)" offset="0.0273438"/><stop stop-opacity="1" stop-color="rgb(95.628357%, 95.552063%, 95.567322%)" offset="0.03125"/><stop stop-opacity="1" stop-color="rgb(95.297241%, 95.214844%, 95.231628%)" offset="0.0351562"/><stop stop-opacity="1" stop-color="rgb(94.967651%, 94.87915%, 94.897461%)" offset="0.0390625"/><stop stop-opacity="1" stop-color="rgb(94.636536%, 94.543457%, 94.561768%)" offset="0.0429688"/><stop stop-opacity="1" stop-color="rgb(94.306946%, 94.207764%, 94.2276%)" offset="0.046875"/><stop stop-opacity="1" stop-color="rgb(93.97583%, 93.870544%, 93.891907%)" offset="0.0507812"/><stop stop-opacity="1" stop-color="rgb(93.64624%, 93.534851%, 93.557739%)" offset="0.0546875"/><stop stop-opacity="1" stop-color="rgb(93.315125%, 93.199158%, 93.222046%)" offset="0.0585938"/><stop stop-opacity="1" stop-color="rgb(92.985535%, 92.863464%, 92.887878%)" offset="0.0625"/><stop stop-opacity="1" stop-color="rgb(92.654419%, 92.526245%, 92.552185%)" offset="0.0664062"/><stop stop-opacity="1" stop-color="rgb(92.324829%, 92.190552%, 92.218018%)" offset="0.0703125"/><stop stop-opacity="1" stop-color="rgb(91.993713%, 91.854858%, 91.882324%)" offset="0.0742188"/><stop stop-opacity="1" stop-color="rgb(91.664124%, 91.519165%, 91.548157%)" offset="0.078125"/><stop stop-opacity="1" stop-color="rgb(91.333008%, 91.181946%, 91.212463%)" offset="0.0820312"/><stop stop-opacity="1" stop-color="rgb(91.003418%, 90.846252%, 90.878296%)" offset="0.0859375"/><stop stop-opacity="1" stop-color="rgb(90.672302%, 90.510559%, 90.542603%)" offset="0.0898437"/><stop stop-opacity="1" stop-color="rgb(90.342712%, 90.174866%, 90.208435%)" offset="0.09375"/><stop stop-opacity="1" stop-color="rgb(90.011597%, 89.837646%, 89.872742%)" offset="0.0976562"/><stop stop-opacity="1" stop-color="rgb(89.682007%, 89.501953%, 89.537048%)" offset="0.101562"/><stop stop-opacity="1" stop-color="rgb(89.350891%, 89.164734%, 89.201355%)" offset="0.105469"/><stop stop-opacity="1" stop-color="rgb(89.021301%, 88.829041%, 88.867188%)" offset="0.109375"/><stop stop-opacity="1" stop-color="rgb(88.690186%, 88.493347%, 88.531494%)" offset="0.113281"/><stop stop-opacity="1" stop-color="rgb(88.360596%, 88.157654%, 88.197327%)" offset="0.117188"/><stop stop-opacity="1" stop-color="rgb(88.02948%, 87.820435%, 87.861633%)" offset="0.121094"/><stop stop-opacity="1" stop-color="rgb(87.69989%, 87.484741%, 87.527466%)" offset="0.125"/><stop stop-opacity="1" stop-color="rgb(87.368774%, 87.149048%, 87.191772%)" offset="0.128906"/><stop stop-opacity="1" stop-color="rgb(87.037659%, 86.813354%, 86.857605%)" offset="0.132812"/><stop stop-opacity="1" stop-color="rgb(86.706543%, 86.476135%, 86.521912%)" offset="0.136719"/><stop stop-opacity="1" stop-color="rgb(86.376953%, 86.140442%, 86.187744%)" offset="0.140625"/><stop stop-opacity="1" stop-color="rgb(86.045837%, 85.804749%, 85.852051%)" offset="0.144531"/><stop stop-opacity="1" stop-color="rgb(85.716248%, 85.469055%, 85.517883%)" offset="0.148438"/><stop stop-opacity="1" stop-color="rgb(85.385132%, 85.131836%, 85.18219%)" offset="0.152344"/><stop stop-opacity="1" stop-color="rgb(85.055542%, 84.796143%, 84.848022%)" offset="0.15625"/><stop stop-opacity="1" stop-color="rgb(84.724426%, 84.460449%, 84.512329%)" offset="0.160156"/><stop stop-opacity="1" stop-color="rgb(84.394836%, 84.124756%, 84.178162%)" offset="0.164062"/><stop stop-opacity="1" stop-color="rgb(84.063721%, 83.787537%, 83.842468%)" offset="0.167969"/><stop stop-opacity="1" stop-color="rgb(83.734131%, 83.451843%, 83.508301%)" offset="0.171875"/><stop stop-opacity="1" stop-color="rgb(83.403015%, 83.11615%, 83.172607%)" offset="0.175781"/><stop stop-opacity="1" stop-color="rgb(83.073425%, 82.780457%, 82.83844%)" offset="0.179687"/><stop stop-opacity="1" stop-color="rgb(82.74231%, 82.443237%, 82.502747%)" offset="0.183594"/><stop stop-opacity="1" stop-color="rgb(82.41272%, 82.107544%, 82.168579%)" offset="0.1875"/><stop stop-opacity="1" stop-color="rgb(82.081604%, 81.771851%, 81.832886%)" offset="0.191406"/><stop stop-opacity="1" stop-color="rgb(81.752014%, 81.436157%, 81.498718%)" offset="0.195312"/><stop stop-opacity="1" stop-color="rgb(81.420898%, 81.098938%, 81.163025%)" offset="0.199219"/><stop stop-opacity="1" stop-color="rgb(81.091309%, 80.763245%, 80.828857%)" offset="0.203125"/><stop stop-opacity="1" stop-color="rgb(80.760193%, 80.427551%, 80.493164%)" offset="0.207031"/><stop stop-opacity="1" stop-color="rgb(80.430603%, 80.091858%, 80.158997%)" offset="0.210937"/><stop stop-opacity="1" stop-color="rgb(80.099487%, 79.754639%, 79.823303%)" offset="0.214844"/><stop stop-opacity="1" stop-color="rgb(79.769897%, 79.418945%, 79.489136%)" offset="0.21875"/><stop stop-opacity="1" stop-color="rgb(79.438782%, 79.081726%, 79.153442%)" offset="0.222656"/><stop stop-opacity="1" stop-color="rgb(79.109192%, 78.746033%, 78.819275%)" offset="0.226562"/><stop stop-opacity="1" stop-color="rgb(78.778076%, 78.410339%, 78.483582%)" offset="0.230469"/><stop stop-opacity="1" stop-color="rgb(78.448486%, 78.074646%, 78.149414%)" offset="0.234375"/><stop stop-opacity="1" stop-color="rgb(78.117371%, 77.737427%, 77.813721%)" offset="0.238281"/><stop stop-opacity="1" stop-color="rgb(77.787781%, 77.401733%, 77.479553%)" offset="0.242188"/><stop stop-opacity="1" stop-color="rgb(77.456665%, 77.06604%, 77.14386%)" offset="0.246094"/><stop stop-opacity="1" stop-color="rgb(77.127075%, 76.730347%, 76.809692%)" offset="0.25"/><stop stop-opacity="1" stop-color="rgb(76.795959%, 76.393127%, 76.473999%)" offset="0.253906"/><stop stop-opacity="1" stop-color="rgb(76.46637%, 76.057434%, 76.139832%)" offset="0.257812"/><stop stop-opacity="1" stop-color="rgb(76.135254%, 75.721741%, 75.804138%)" offset="0.261719"/><stop stop-opacity="1" stop-color="rgb(75.805664%, 75.386047%, 75.469971%)" offset="0.265625"/><stop stop-opacity="1" stop-color="rgb(75.474548%, 75.048828%, 75.134277%)" offset="0.269531"/><stop stop-opacity="1" stop-color="rgb(75.144958%, 74.713135%, 74.80011%)" offset="0.273438"/><stop stop-opacity="1" stop-color="rgb(74.813843%, 74.377441%, 74.464417%)" offset="0.277344"/><stop stop-opacity="1" stop-color="rgb(74.484253%, 74.041748%, 74.130249%)" offset="0.28125"/><stop stop-opacity="1" stop-color="rgb(74.153137%, 73.704529%, 73.794556%)" offset="0.285156"/><stop stop-opacity="1" stop-color="rgb(73.823547%, 73.368835%, 73.460388%)" offset="0.289062"/><stop stop-opacity="1" stop-color="rgb(73.492432%, 73.033142%, 73.124695%)" offset="0.292969"/><stop stop-opacity="1" stop-color="rgb(73.162842%, 72.697449%, 72.790527%)" offset="0.296875"/><stop stop-opacity="1" stop-color="rgb(72.831726%, 72.360229%, 72.454834%)" offset="0.300781"/><stop stop-opacity="1" stop-color="rgb(72.502136%, 72.024536%, 72.120667%)" offset="0.304688"/><stop stop-opacity="1" stop-color="rgb(72.171021%, 71.688843%, 71.784973%)" offset="0.308594"/><stop stop-opacity="1" stop-color="rgb(71.841431%, 71.353149%, 71.450806%)" offset="0.3125"/><stop stop-opacity="1" stop-color="rgb(71.510315%, 71.01593%, 71.115112%)" offset="0.316406"/><stop stop-opacity="1" stop-color="rgb(71.180725%, 70.680237%, 70.780945%)" offset="0.320312"/><stop stop-opacity="1" stop-color="rgb(70.849609%, 70.344543%, 70.445251%)" offset="0.324219"/><stop stop-opacity="1" stop-color="rgb(70.52002%, 70.00885%, 70.111084%)" offset="0.328125"/><stop stop-opacity="1" stop-color="rgb(70.188904%, 69.671631%, 69.775391%)" offset="0.332031"/><stop stop-opacity="1" stop-color="rgb(69.859314%, 69.335938%, 69.441223%)" offset="0.335937"/><stop stop-opacity="1" stop-color="rgb(69.528198%, 69.000244%, 69.10553%)" offset="0.339844"/><stop stop-opacity="1" stop-color="rgb(69.198608%, 68.664551%, 68.771362%)" offset="0.34375"/><stop stop-opacity="1" stop-color="rgb(68.867493%, 68.327332%, 68.435669%)" offset="0.347656"/><stop stop-opacity="1" stop-color="rgb(68.537903%, 67.991638%, 68.101501%)" offset="0.351562"/><stop stop-opacity="1" stop-color="rgb(68.206787%, 67.654419%, 67.765808%)" offset="0.355469"/><stop stop-opacity="1" stop-color="rgb(67.877197%, 67.318726%, 67.431641%)" offset="0.359375"/><stop stop-opacity="1" stop-color="rgb(67.546082%, 66.983032%, 67.095947%)" offset="0.363281"/><stop stop-opacity="1" stop-color="rgb(67.216492%, 66.647339%, 66.76178%)" offset="0.367188"/><stop stop-opacity="1" stop-color="rgb(66.885376%, 66.31012%, 66.426086%)" offset="0.371094"/><stop stop-opacity="1" stop-color="rgb(66.555786%, 65.974426%, 66.091919%)" offset="0.375"/><stop stop-opacity="1" stop-color="rgb(66.22467%, 65.638733%, 65.756226%)" offset="0.378906"/><stop stop-opacity="1" stop-color="rgb(65.895081%, 65.30304%, 65.422058%)" offset="0.382812"/><stop stop-opacity="1" stop-color="rgb(65.563965%, 64.96582%, 65.086365%)" offset="0.386719"/><stop stop-opacity="1" stop-color="rgb(65.234375%, 64.630127%, 64.752197%)" offset="0.390625"/><stop stop-opacity="1" stop-color="rgb(64.903259%, 64.294434%, 64.416504%)" offset="0.394531"/><stop stop-opacity="1" stop-color="rgb(64.573669%, 63.95874%, 64.082336%)" offset="0.398438"/><stop stop-opacity="1" stop-color="rgb(64.242554%, 63.621521%, 63.746643%)" offset="0.402344"/><stop stop-opacity="1" stop-color="rgb(63.912964%, 63.285828%, 63.41095%)" offset="0.40625"/><stop stop-opacity="1" stop-color="rgb(63.581848%, 62.950134%, 63.075256%)" offset="0.410156"/><stop stop-opacity="1" stop-color="rgb(63.252258%, 62.614441%, 62.741089%)" offset="0.414062"/><stop stop-opacity="1" stop-color="rgb(62.921143%, 62.277222%, 62.405396%)" offset="0.417969"/><stop stop-opacity="1" stop-color="rgb(62.591553%, 61.941528%, 62.071228%)" offset="0.421875"/><stop stop-opacity="1" stop-color="rgb(62.260437%, 61.605835%, 61.735535%)" offset="0.425781"/><stop stop-opacity="1" stop-color="rgb(61.930847%, 61.270142%, 61.401367%)" offset="0.429687"/><stop stop-opacity="1" stop-color="rgb(61.599731%, 60.932922%, 61.065674%)" offset="0.433594"/><stop stop-opacity="1" stop-color="rgb(61.270142%, 60.597229%, 60.731506%)" offset="0.4375"/><stop stop-opacity="1" stop-color="rgb(60.939026%, 60.261536%, 60.395813%)" offset="0.441406"/><stop stop-opacity="1" stop-color="rgb(60.609436%, 59.925842%, 60.061646%)" offset="0.445312"/><stop stop-opacity="1" stop-color="rgb(60.27832%, 59.588623%, 59.725952%)" offset="0.449219"/><stop stop-opacity="1" stop-color="rgb(59.94873%, 59.25293%, 59.391785%)" offset="0.453125"/><stop stop-opacity="1" stop-color="rgb(59.617615%, 58.917236%, 59.056091%)" offset="0.457031"/><stop stop-opacity="1" stop-color="rgb(59.288025%, 58.581543%, 58.721924%)" offset="0.460938"/><stop stop-opacity="1" stop-color="rgb(58.956909%, 58.244324%, 58.38623%)" offset="0.464844"/><stop stop-opacity="1" stop-color="rgb(58.627319%, 57.90863%, 58.052063%)" offset="0.46875"/><stop stop-opacity="1" stop-color="rgb(58.296204%, 57.571411%, 57.71637%)" offset="0.472656"/><stop stop-opacity="1" stop-color="rgb(57.966614%, 57.235718%, 57.382202%)" offset="0.476562"/><stop stop-opacity="1" stop-color="rgb(57.635498%, 56.900024%, 57.046509%)" offset="0.480469"/><stop stop-opacity="1" stop-color="rgb(57.305908%, 56.564331%, 56.712341%)" offset="0.484375"/><stop stop-opacity="1" stop-color="rgb(56.974792%, 56.227112%, 56.376648%)" offset="0.488281"/><stop stop-opacity="1" stop-color="rgb(56.645203%, 55.891418%, 56.04248%)" offset="0.492188"/><stop stop-opacity="1" stop-color="rgb(56.314087%, 55.555725%, 55.706787%)" offset="0.496094"/><stop stop-opacity="1" stop-color="rgb(55.984497%, 55.220032%, 55.37262%)" offset="0.5"/><stop stop-opacity="1" stop-color="rgb(55.653381%, 54.882812%, 55.036926%)" offset="0.503906"/><stop stop-opacity="1" stop-color="rgb(55.323792%, 54.547119%, 54.702759%)" offset="0.507812"/><stop stop-opacity="1" stop-color="rgb(54.992676%, 54.211426%, 54.367065%)" offset="0.511719"/><stop stop-opacity="1" stop-color="rgb(54.663086%, 53.875732%, 54.032898%)" offset="0.515625"/><stop stop-opacity="1" stop-color="rgb(54.33197%, 53.538513%, 53.697205%)" offset="0.519531"/><stop stop-opacity="1" stop-color="rgb(54.00238%, 53.20282%, 53.363037%)" offset="0.523438"/><stop stop-opacity="1" stop-color="rgb(53.671265%, 52.867126%, 53.027344%)" offset="0.527344"/><stop stop-opacity="1" stop-color="rgb(53.341675%, 52.531433%, 52.693176%)" offset="0.53125"/><stop stop-opacity="1" stop-color="rgb(53.010559%, 52.194214%, 52.357483%)" offset="0.535156"/><stop stop-opacity="1" stop-color="rgb(52.680969%, 51.858521%, 52.023315%)" offset="0.539062"/><stop stop-opacity="1" stop-color="rgb(52.349854%, 51.522827%, 51.687622%)" offset="0.542969"/><stop stop-opacity="1" stop-color="rgb(52.020264%, 51.187134%, 51.353455%)" offset="0.546875"/><stop stop-opacity="1" stop-color="rgb(51.689148%, 50.849915%, 51.017761%)" offset="0.550781"/><stop stop-opacity="1" stop-color="rgb(51.359558%, 50.514221%, 50.683594%)" offset="0.554688"/><stop stop-opacity="1" stop-color="rgb(51.028442%, 50.178528%, 50.3479%)" offset="0.558594"/><stop stop-opacity="1" stop-color="rgb(50.698853%, 49.842834%, 50.013733%)" offset="0.5625"/><stop stop-opacity="1" stop-color="rgb(50.367737%, 49.505615%, 49.67804%)" offset="0.566406"/><stop stop-opacity="1" stop-color="rgb(50.038147%, 49.169922%, 49.343872%)" offset="0.570312"/><stop stop-opacity="1" stop-color="rgb(49.707031%, 48.834229%, 49.008179%)" offset="0.574219"/><stop stop-opacity="1" stop-color="rgb(49.377441%, 48.498535%, 48.674011%)" offset="0.578125"/><stop stop-opacity="1" stop-color="rgb(49.046326%, 48.161316%, 48.338318%)" offset="0.582031"/><stop stop-opacity="1" stop-color="rgb(48.716736%, 47.825623%, 48.00415%)" offset="0.585938"/><stop stop-opacity="1" stop-color="rgb(48.38562%, 47.489929%, 47.668457%)" offset="0.589844"/><stop stop-opacity="1" stop-color="rgb(48.05603%, 47.154236%, 47.33429%)" offset="0.59375"/><stop stop-opacity="1" stop-color="rgb(47.724915%, 46.817017%, 46.998596%)" offset="0.597656"/><stop stop-opacity="1" stop-color="rgb(47.395325%, 46.481323%, 46.664429%)" offset="0.601562"/><stop stop-opacity="1" stop-color="rgb(47.064209%, 46.144104%, 46.328735%)" offset="0.605469"/><stop stop-opacity="1" stop-color="rgb(46.734619%, 45.808411%, 45.994568%)" offset="0.609375"/><stop stop-opacity="1" stop-color="rgb(46.403503%, 45.472717%, 45.658875%)" offset="0.613281"/><stop stop-opacity="1" stop-color="rgb(46.073914%, 45.137024%, 45.324707%)" offset="0.617188"/><stop stop-opacity="1" stop-color="rgb(45.742798%, 44.799805%, 44.989014%)" offset="0.621094"/><stop stop-opacity="1" stop-color="rgb(45.413208%, 44.464111%, 44.654846%)" offset="0.625"/><stop stop-opacity="1" stop-color="rgb(45.082092%, 44.128418%, 44.319153%)" offset="0.628906"/><stop stop-opacity="1" stop-color="rgb(44.752502%, 43.792725%, 43.984985%)" offset="0.632812"/><stop stop-opacity="1" stop-color="rgb(44.421387%, 43.455505%, 43.649292%)" offset="0.636719"/><stop stop-opacity="1" stop-color="rgb(44.091797%, 43.119812%, 43.315125%)" offset="0.640625"/><stop stop-opacity="1" stop-color="rgb(43.760681%, 42.784119%, 42.979431%)" offset="0.644531"/><stop stop-opacity="1" stop-color="rgb(43.431091%, 42.448425%, 42.645264%)" offset="0.648438"/><stop stop-opacity="1" stop-color="rgb(43.099976%, 42.111206%, 42.30957%)" offset="0.652344"/><stop stop-opacity="1" stop-color="rgb(42.770386%, 41.775513%, 41.975403%)" offset="0.65625"/><stop stop-opacity="1" stop-color="rgb(42.43927%, 41.439819%, 41.639709%)" offset="0.660156"/><stop stop-opacity="1" stop-color="rgb(42.10968%, 41.104126%, 41.305542%)" offset="0.664062"/><stop stop-opacity="1" stop-color="rgb(41.778564%, 40.766907%, 40.969849%)" offset="0.667969"/><stop stop-opacity="1" stop-color="rgb(41.448975%, 40.431213%, 40.635681%)" offset="0.671875"/><stop stop-opacity="1" stop-color="rgb(41.117859%, 40.09552%, 40.299988%)" offset="0.675781"/><stop stop-opacity="1" stop-color="rgb(40.788269%, 39.759827%, 39.96582%)" offset="0.679688"/><stop stop-opacity="1" stop-color="rgb(40.457153%, 39.422607%, 39.630127%)" offset="0.683594"/><stop stop-opacity="1" stop-color="rgb(40.127563%, 39.086914%, 39.295959%)" offset="0.6875"/><stop stop-opacity="1" stop-color="rgb(39.796448%, 38.751221%, 38.960266%)" offset="0.691406"/><stop stop-opacity="1" stop-color="rgb(39.466858%, 38.415527%, 38.626099%)" offset="0.695312"/><stop stop-opacity="1" stop-color="rgb(39.135742%, 38.078308%, 38.290405%)" offset="0.699219"/><stop stop-opacity="1" stop-color="rgb(38.806152%, 37.742615%, 37.954712%)" offset="0.703125"/><stop stop-opacity="1" stop-color="rgb(38.475037%, 37.406921%, 37.619019%)" offset="0.707031"/><stop stop-opacity="1" stop-color="rgb(38.145447%, 37.071228%, 37.284851%)" offset="0.710938"/><stop stop-opacity="1" stop-color="rgb(37.814331%, 36.734009%, 36.949158%)" offset="0.714844"/><stop stop-opacity="1" stop-color="rgb(37.484741%, 36.398315%, 36.61499%)" offset="0.71875"/><stop stop-opacity="1" stop-color="rgb(37.153625%, 36.061096%, 36.279297%)" offset="0.722656"/><stop stop-opacity="1" stop-color="rgb(36.824036%, 35.725403%, 35.945129%)" offset="0.726562"/><stop stop-opacity="1" stop-color="rgb(36.49292%, 35.389709%, 35.609436%)" offset="0.730469"/><stop stop-opacity="1" stop-color="rgb(36.16333%, 35.054016%, 35.275269%)" offset="0.734375"/><stop stop-opacity="1" stop-color="rgb(35.832214%, 34.716797%, 34.939575%)" offset="0.738281"/><stop stop-opacity="1" stop-color="rgb(35.502625%, 34.381104%, 34.605408%)" offset="0.742188"/><stop stop-opacity="1" stop-color="rgb(35.171509%, 34.04541%, 34.269714%)" offset="0.746094"/><stop stop-opacity="1" stop-color="rgb(34.841919%, 33.709717%, 33.935547%)" offset="0.75"/><stop stop-opacity="1" stop-color="rgb(34.510803%, 33.372498%, 33.599854%)" offset="0.753906"/><stop stop-opacity="1" stop-color="rgb(34.181213%, 33.036804%, 33.265686%)" offset="0.757812"/><stop stop-opacity="1" stop-color="rgb(33.850098%, 32.701111%, 32.929993%)" offset="0.761719"/><stop stop-opacity="1" stop-color="rgb(33.520508%, 32.365417%, 32.595825%)" offset="0.765625"/><stop stop-opacity="1" stop-color="rgb(33.189392%, 32.028198%, 32.260132%)" offset="0.769531"/><stop stop-opacity="1" stop-color="rgb(32.859802%, 31.692505%, 31.925964%)" offset="0.773438"/><stop stop-opacity="1" stop-color="rgb(32.528687%, 31.356812%, 31.590271%)" offset="0.777344"/><stop stop-opacity="1" stop-color="rgb(32.199097%, 31.021118%, 31.256104%)" offset="0.78125"/><stop stop-opacity="1" stop-color="rgb(31.867981%, 30.683899%, 30.92041%)" offset="0.785156"/><stop stop-opacity="1" stop-color="rgb(31.538391%, 30.348206%, 30.586243%)" offset="0.789062"/><stop stop-opacity="1" stop-color="rgb(31.207275%, 30.012512%, 30.250549%)" offset="0.792969"/><stop stop-opacity="1" stop-color="rgb(30.877686%, 29.676819%, 29.916382%)" offset="0.796875"/><stop stop-opacity="1" stop-color="rgb(30.54657%, 29.3396%, 29.580688%)" offset="0.800781"/><stop stop-opacity="1" stop-color="rgb(30.21698%, 29.003906%, 29.246521%)" offset="0.804688"/><stop stop-opacity="1" stop-color="rgb(29.885864%, 28.668213%, 28.910828%)" offset="0.808594"/><stop stop-opacity="1" stop-color="rgb(29.556274%, 28.33252%, 28.57666%)" offset="0.8125"/><stop stop-opacity="1" stop-color="rgb(29.225159%, 27.9953%, 28.240967%)" offset="0.816406"/><stop stop-opacity="1" stop-color="rgb(28.895569%, 27.659607%, 27.906799%)" offset="0.820312"/><stop stop-opacity="1" stop-color="rgb(28.564453%, 27.323914%, 27.571106%)" offset="0.824219"/><stop stop-opacity="1" stop-color="rgb(28.234863%, 26.98822%, 27.236938%)" offset="0.828125"/><stop stop-opacity="1" stop-color="rgb(27.903748%, 26.651001%, 26.901245%)" offset="0.832031"/><stop stop-opacity="1" stop-color="rgb(27.574158%, 26.315308%, 26.567078%)" offset="0.835938"/><stop stop-opacity="1" stop-color="rgb(27.243042%, 25.979614%, 26.231384%)" offset="0.839844"/><stop stop-opacity="1" stop-color="rgb(26.913452%, 25.643921%, 25.897217%)" offset="0.84375"/><stop stop-opacity="1" stop-color="rgb(26.582336%, 25.306702%, 25.561523%)" offset="0.847656"/><stop stop-opacity="1" stop-color="rgb(26.252747%, 24.971008%, 25.227356%)" offset="0.851562"/><stop stop-opacity="1" stop-color="rgb(25.921631%, 24.633789%, 24.891663%)" offset="0.855469"/><stop stop-opacity="1" stop-color="rgb(25.592041%, 24.298096%, 24.557495%)" offset="0.859375"/><stop stop-opacity="1" stop-color="rgb(25.260925%, 23.962402%, 24.221802%)" offset="0.863281"/><stop stop-opacity="1" stop-color="rgb(24.931335%, 23.626709%, 23.887634%)" offset="0.867188"/><stop stop-opacity="1" stop-color="rgb(24.60022%, 23.28949%, 23.551941%)" offset="0.871094"/><stop stop-opacity="1" stop-color="rgb(24.27063%, 22.953796%, 23.217773%)" offset="0.875"/><stop stop-opacity="1" stop-color="rgb(23.939514%, 22.618103%, 22.88208%)" offset="0.878906"/><stop stop-opacity="1" stop-color="rgb(23.609924%, 22.28241%, 22.547913%)" offset="0.882812"/><stop stop-opacity="1" stop-color="rgb(23.278809%, 21.94519%, 22.212219%)" offset="0.886719"/><stop stop-opacity="1" stop-color="rgb(22.949219%, 21.609497%, 21.878052%)" offset="0.890625"/><stop stop-opacity="1" stop-color="rgb(22.618103%, 21.273804%, 21.542358%)" offset="0.894531"/><stop stop-opacity="1" stop-color="rgb(22.288513%, 20.93811%, 21.208191%)" offset="0.898438"/><stop stop-opacity="1" stop-color="rgb(21.957397%, 20.600891%, 20.872498%)" offset="0.902344"/><stop stop-opacity="1" stop-color="rgb(21.627808%, 20.265198%, 20.53833%)" offset="0.90625"/><stop stop-opacity="1" stop-color="rgb(21.296692%, 19.929504%, 20.202637%)" offset="0.910156"/><stop stop-opacity="1" stop-color="rgb(20.967102%, 19.593811%, 19.868469%)" offset="0.914062"/><stop stop-opacity="1" stop-color="rgb(20.635986%, 19.256592%, 19.532776%)" offset="0.917969"/><stop stop-opacity="1" stop-color="rgb(20.306396%, 18.920898%, 19.198608%)" offset="0.921875"/><stop stop-opacity="1" stop-color="rgb(19.975281%, 18.585205%, 18.862915%)" offset="0.925781"/><stop stop-opacity="1" stop-color="rgb(19.645691%, 18.249512%, 18.528748%)" offset="0.929688"/><stop stop-opacity="1" stop-color="rgb(19.314575%, 17.912292%, 18.193054%)" offset="0.933594"/><stop stop-opacity="1" stop-color="rgb(18.984985%, 17.576599%, 17.858887%)" offset="0.9375"/><stop stop-opacity="1" stop-color="rgb(18.65387%, 17.240906%, 17.523193%)" offset="0.941406"/><stop stop-opacity="1" stop-color="rgb(18.32428%, 16.905212%, 17.189026%)" offset="0.945312"/><stop stop-opacity="1" stop-color="rgb(17.993164%, 16.567993%, 16.853333%)" offset="0.949219"/><stop stop-opacity="1" stop-color="rgb(17.663574%, 16.2323%, 16.519165%)" offset="0.953125"/><stop stop-opacity="1" stop-color="rgb(17.332458%, 15.896606%, 16.183472%)" offset="0.957031"/><stop stop-opacity="1" stop-color="rgb(17.002869%, 15.560913%, 15.849304%)" offset="0.960938"/><stop stop-opacity="1" stop-color="rgb(16.671753%, 15.223694%, 15.513611%)" offset="0.964844"/><stop stop-opacity="1" stop-color="rgb(16.342163%, 14.888%, 15.179443%)" offset="0.96875"/><stop stop-opacity="1" stop-color="rgb(16.011047%, 14.550781%, 14.84375%)" offset="0.972656"/><stop stop-opacity="1" stop-color="rgb(15.681458%, 14.215088%, 14.509583%)" offset="0.976563"/><stop stop-opacity="1" stop-color="rgb(15.350342%, 13.879395%, 14.173889%)" offset="0.980469"/><stop stop-opacity="1" stop-color="rgb(15.020752%, 13.543701%, 13.839722%)" offset="0.984375"/><stop stop-opacity="1" stop-color="rgb(14.689636%, 13.206482%, 13.504028%)" offset="0.988281"/><stop stop-opacity="1" stop-color="rgb(14.360046%, 12.870789%, 13.169861%)" offset="0.992188"/><stop stop-opacity="1" stop-color="rgb(14.028931%, 12.535095%, 12.834167%)" offset="0.996094"/><stop stop-opacity="1" stop-color="rgb(13.699341%, 12.199402%, 12.5%)" offset="1"/></linearGradient></defs><g clip-path="url(#d52c0241f7)"><g clip-path="url(#c1b59199f2)"><path fill="url(#8154b55260)" d="M 0 207.558594 L 0 211.046875 L 367.488281 211.046875 L 367.488281 207.558594 Z M 0 207.558594 " fill-rule="nonzero"/></g></g><g fill="#ff0000" fill-opacity="1"><g transform="translate(15.432158, 201.975044)"><g><path d="M 16.421875 0.46875 C 11.054688 0.46875 7.109375 -0.632812 4.578125 -2.84375 C 2.335938 -4.800781 1.21875 -7.46875 1.21875 -10.84375 C 1.21875 -14.21875 2.335938 -16.882812 4.578125 -18.84375 C 7.109375 -21.050781 11.054688 -22.15625 16.421875 -22.15625 C 19.484375 -22.15625 22.023438 -21.8125 24.046875 -21.125 C 26.078125 -20.445312 27.671875 -19.515625 28.828125 -18.328125 C 29.984375 -17.140625 30.773438 -15.773438 31.203125 -14.234375 L 21.453125 -14.234375 C 20.429688 -15.628906 18.753906 -16.328125 16.421875 -16.328125 C 14.222656 -16.328125 12.601562 -15.695312 11.5625 -14.4375 C 10.738281 -13.414062 10.328125 -12.21875 10.328125 -10.84375 C 10.328125 -9.457031 10.738281 -8.257812 11.5625 -7.25 C 12.601562 -5.988281 14.222656 -5.359375 16.421875 -5.359375 C 18.203125 -5.359375 19.535156 -5.507812 20.421875 -5.8125 C 21.316406 -6.125 21.972656 -6.53125 22.390625 -7.03125 L 18.828125 -7.03125 L 18.828125 -10.84375 L 31.203125 -10.84375 L 31.203125 0.015625 L 27.40625 0.015625 L 26.640625 -2.09375 C 24.222656 -0.382812 20.816406 0.46875 16.421875 0.46875 Z M 16.421875 0.46875 "/></g></g></g><g fill="#ff0000" fill-opacity="1"><g transform="translate(64.282056, 201.975044)"><g><path d="M 32.078125 0 L 23.46875 0 C 23.070312 -0.539062 22.789062 -1.238281 22.625 -2.09375 C 22.488281 -2.75 22.273438 -3.390625 21.984375 -4.015625 C 21.703125 -4.648438 21.21875 -5.175781 20.53125 -5.59375 C 19.84375 -6.007812 18.816406 -6.234375 17.453125 -6.265625 L 11.53125 -6.265625 L 11.53125 0 L 2.421875 0 L 2.421875 -21.71875 L 17.234375 -21.71875 C 20.773438 -21.71875 23.632812 -21.453125 25.8125 -20.921875 C 27.988281 -20.390625 29.578125 -19.554688 30.578125 -18.421875 C 31.578125 -17.285156 32.078125 -15.804688 32.078125 -13.984375 C 32.078125 -12.460938 31.726562 -11.179688 31.03125 -10.140625 C 30.34375 -9.097656 29.253906 -8.273438 27.765625 -7.671875 C 29.203125 -7.078125 30.132812 -6.363281 30.5625 -5.53125 C 31 -4.695312 31.265625 -3.78125 31.359375 -2.78125 C 31.460938 -1.894531 31.703125 -0.96875 32.078125 0 Z M 11.53125 -11.625 L 16.734375 -11.640625 C 18.191406 -11.640625 19.335938 -11.703125 20.171875 -11.828125 C 21.015625 -11.960938 21.632812 -12.144531 22.03125 -12.375 C 22.425781 -12.601562 22.679688 -12.851562 22.796875 -13.125 C 22.910156 -13.40625 22.96875 -13.691406 22.96875 -13.984375 C 22.96875 -14.273438 22.910156 -14.5625 22.796875 -14.84375 C 22.679688 -15.125 22.425781 -15.378906 22.03125 -15.609375 C 21.632812 -15.835938 21.015625 -16.015625 20.171875 -16.140625 C 19.335938 -16.273438 18.191406 -16.34375 16.734375 -16.34375 L 11.53125 -16.34375 Z M 11.53125 -11.625 "/></g></g></g><g fill="#ff0000" fill-opacity="1"><g transform="translate(113.404381, 201.975044)"><g><path d="M 11.53125 0 L 2.421875 0 L 2.421875 -21.71875 L 11.53125 -21.71875 Z M 11.53125 0 "/></g></g></g><g fill="#ff0000" fill-opacity="1"><g transform="translate(143.199552, 201.975044)"><g><path d="M 11.53125 0 L 2.421875 0 L 2.421875 -21.71875 L 17.234375 -21.71875 C 20.773438 -21.71875 23.632812 -21.453125 25.8125 -20.921875 C 27.988281 -20.390625 29.578125 -19.554688 30.578125 -18.421875 C 31.578125 -17.285156 32.078125 -15.804688 32.078125 -13.984375 C 32.078125 -12.171875 31.578125 -10.695312 30.578125 -9.5625 C 29.578125 -8.425781 27.988281 -7.59375 25.8125 -7.0625 C 23.632812 -6.53125 20.773438 -6.265625 17.234375 -6.265625 L 11.53125 -6.265625 Z M 11.53125 -11.625 L 16.734375 -11.640625 C 18.191406 -11.640625 19.335938 -11.695312 20.171875 -11.8125 C 21.015625 -11.925781 21.632812 -12.085938 22.03125 -12.296875 C 22.425781 -12.515625 22.679688 -12.765625 22.796875 -13.046875 C 22.910156 -13.335938 22.96875 -13.648438 22.96875 -13.984375 C 22.96875 -14.328125 22.910156 -14.640625 22.796875 -14.921875 C 22.679688 -15.210938 22.425781 -15.460938 22.03125 -15.671875 C 21.632812 -15.890625 21.015625 -16.054688 20.171875 -16.171875 C 19.335938 -16.285156 18.191406 -16.34375 16.734375 -16.34375 L 11.53125 -16.34375 Z M 11.53125 -11.625 "/></g></g></g><g fill="#ff0000" fill-opacity="1"><g transform="translate(192.321871, 201.975044)"><g><path d="M 14.34375 0.46875 C 11.40625 0.46875 9.039062 0.15625 7.25 -0.46875 C 5.457031 -1.101562 4.085938 -1.972656 3.140625 -3.078125 C 2.203125 -4.179688 1.570312 -5.457031 1.25 -6.90625 L 10.921875 -6.90625 C 11.640625 -5.875 12.78125 -5.359375 14.34375 -5.359375 C 15.914062 -5.359375 17.054688 -5.875 17.765625 -6.90625 C 17.828125 -7 17.859375 -7.085938 17.859375 -7.171875 C 17.859375 -7.441406 17.5 -7.644531 16.78125 -7.78125 C 16.0625 -7.925781 14.984375 -8.03125 13.546875 -8.09375 C 11.742188 -8.175781 9.847656 -8.367188 7.859375 -8.671875 C 3.429688 -9.359375 1.21875 -11.140625 1.21875 -14.015625 C 1.21875 -14.253906 1.226562 -14.507812 1.25 -14.78125 C 1.570312 -16.226562 2.203125 -17.503906 3.140625 -18.609375 C 4.085938 -19.710938 5.457031 -20.578125 7.25 -21.203125 C 9.039062 -21.835938 11.40625 -22.15625 14.34375 -22.15625 C 17.28125 -22.15625 19.644531 -21.835938 21.4375 -21.203125 C 23.238281 -20.578125 24.609375 -19.710938 25.546875 -18.609375 C 26.484375 -17.503906 27.113281 -16.226562 27.4375 -14.78125 L 17.765625 -14.78125 C 17.054688 -15.8125 15.914062 -16.328125 14.34375 -16.328125 C 12.78125 -16.328125 11.640625 -15.8125 10.921875 -14.78125 C 10.878906 -14.707031 10.859375 -14.632812 10.859375 -14.5625 C 10.859375 -14.320312 11.203125 -14.140625 11.890625 -14.015625 C 12.578125 -13.898438 13.59375 -13.800781 14.9375 -13.71875 C 16.289062 -13.644531 17.726562 -13.515625 19.25 -13.328125 C 20.78125 -13.148438 22.207031 -12.835938 23.53125 -12.390625 C 24.851562 -11.941406 25.890625 -11.28125 26.640625 -10.40625 C 27.222656 -9.726562 27.515625 -8.867188 27.515625 -7.828125 C 27.515625 -7.535156 27.488281 -7.226562 27.4375 -6.90625 C 27.113281 -5.457031 26.484375 -4.179688 25.546875 -3.078125 C 24.609375 -1.972656 23.238281 -1.101562 21.4375 -0.46875 C 19.644531 0.15625 17.28125 0.46875 14.34375 0.46875 Z M 14.34375 0.46875 "/></g></g></g><g fill="#ff0000" fill-opacity="1"><g transform="translate(236.888618, 201.975044)"><g><path d="M 18.53125 0 L 9.421875 0 L 9.421875 -16.34375 L 0.90625 -16.34375 L 0.90625 -21.71875 L 27.03125 -21.71875 L 27.03125 -16.34375 L 18.53125 -16.34375 Z M 18.53125 0 "/></g></g></g><g fill="#ff0000" fill-opacity="1"><g transform="translate(280.668354, 201.975044)"><g><path d="M 28.578125 0 L 2.421875 0 L 2.421875 -21.71875 L 27.375 -21.71875 L 27.375 -16.34375 L 11.53125 -16.34375 L 11.53125 -12.9375 L 24.9375 -12.9375 L 24.9375 -8.765625 L 11.53125 -8.765625 L 11.53125 -5.375 L 28.578125 -5.375 Z M 28.578125 0 "/></g></g></g><g fill="#ff0000" fill-opacity="1"><g transform="translate(326.294526, 201.975044)"><g><path d="M 32.078125 0 L 23.46875 0 C 23.070312 -0.539062 22.789062 -1.238281 22.625 -2.09375 C 22.488281 -2.75 22.273438 -3.390625 21.984375 -4.015625 C 21.703125 -4.648438 21.21875 -5.175781 20.53125 -5.59375 C 19.84375 -6.007812 18.816406 -6.234375 17.453125 -6.265625 L 11.53125 -6.265625 L 11.53125 0 L 2.421875 0 L 2.421875 -21.71875 L 17.234375 -21.71875 C 20.773438 -21.71875 23.632812 -21.453125 25.8125 -20.921875 C 27.988281 -20.390625 29.578125 -19.554688 30.578125 -18.421875 C 31.578125 -17.285156 32.078125 -15.804688 32.078125 -13.984375 C 32.078125 -12.460938 31.726562 -11.179688 31.03125 -10.140625 C 30.34375 -9.097656 29.253906 -8.273438 27.765625 -7.671875 C 29.203125 -7.078125 30.132812 -6.363281 30.5625 -5.53125 C 31 -4.695312 31.265625 -3.78125 31.359375 -2.78125 C 31.460938 -1.894531 31.703125 -0.96875 32.078125 0 Z M 11.53125 -11.625 L 16.734375 -11.640625 C 18.191406 -11.640625 19.335938 -11.703125 20.171875 -11.828125 C 21.015625 -11.960938 21.632812 -12.144531 22.03125 -12.375 C 22.425781 -12.601562 22.679688 -12.851562 22.796875 -13.125 C 22.910156 -13.40625 22.96875 -13.691406 22.96875 -13.984375 C 22.96875 -14.273438 22.910156 -14.5625 22.796875 -14.84375 C 22.679688 -15.125 22.425781 -15.378906 22.03125 -15.609375 C 21.632812 -15.835938 21.015625 -16.015625 20.171875 -16.140625 C 19.335938 -16.273438 18.191406 -16.34375 16.734375 -16.34375 L 11.53125 -16.34375 Z M 11.53125 -11.625 "/></g></g></g></svg>